<svg width="25" height="25" viewBox="0 0 25 25" fill="none" xmlns="http://www.w3.org/2000/svg">
<path d="M12.5 0.71875C6.004 0.71875 0.71875 6.004 0.71875 12.5C0.71875 18.996 6.004 24.2812 12.5 24.2812C18.996 24.2812 24.2812 18.996 24.2812 12.5C24.2812 6.004 18.996 0.71875 12.5 0.71875ZM12.5 2.53125C18.0163 2.53125 22.4688 6.98366 22.4688 12.5C22.4688 18.0163 18.0163 22.4688 12.5 22.4688C6.98366 22.4688 2.53125 18.0163 2.53125 12.5C2.53125 6.98366 6.98366 2.53125 12.5 2.53125ZM9.07438 7.76937L7.76937 9.07438L11.1986 12.5L7.77119 15.9256L9.07619 17.2306L12.5 13.8023L15.9256 17.2279L17.2306 15.9256L13.8023 12.5L17.2279 9.07438L15.9256 7.76937L12.5 11.1986L9.07438 7.77119V7.76937Z" fill="#6F7174"/>
</svg>
