<svg width="88" height="15" viewBox="0 0 88 15" fill="none" xmlns="http://www.w3.org/2000/svg">
<path d="M0.200994 0.181818H3.80398L7.60938 9.46591H7.77131L11.5767 0.181818H15.1797V14H12.3459V5.00604H12.2312L8.65518 13.9325H6.7255L3.1495 4.9723H3.0348V14H0.200994V0.181818ZM20.488 14.1957C19.8268 14.1957 19.2375 14.081 18.7203 13.8516C18.203 13.6177 17.7936 13.2736 17.4923 12.8192C17.1954 12.3604 17.047 11.7892 17.047 11.1055C17.047 10.5297 17.1527 10.0462 17.3641 9.65483C17.5755 9.26349 17.8634 8.94863 18.2277 8.71023C18.5921 8.47183 19.0059 8.2919 19.4692 8.17045C19.937 8.04901 20.4273 7.96354 20.9401 7.91406C21.5428 7.85109 22.0286 7.79261 22.3975 7.73864C22.7663 7.68016 23.0339 7.5947 23.2004 7.48224C23.3668 7.36979 23.45 7.20336 23.45 6.98295V6.94247C23.45 6.51515 23.3151 6.18454 23.0452 5.95064C22.7798 5.71674 22.402 5.59979 21.9117 5.59979C21.3944 5.59979 20.9828 5.71449 20.6769 5.94389C20.3711 6.1688 20.1686 6.45218 20.0697 6.79403L17.4113 6.57812C17.5463 5.94839 17.8116 5.40412 18.2075 4.94531C18.6033 4.48201 19.1138 4.12666 19.7391 3.87926C20.3688 3.62737 21.0975 3.50142 21.9252 3.50142C22.5009 3.50142 23.0519 3.56889 23.5782 3.70383C24.109 3.83878 24.579 4.04794 24.9884 4.33132C25.4022 4.6147 25.7283 4.97905 25.9667 5.42436C26.2051 5.86517 26.3243 6.3937 26.3243 7.00994V14H23.5985V12.5629H23.5175C23.3511 12.8867 23.1284 13.1723 22.8495 13.4197C22.5706 13.6626 22.2355 13.8538 21.8442 13.9933C21.4529 14.1282 21.0008 14.1957 20.488 14.1957ZM21.3112 12.212C21.734 12.212 22.1073 12.1288 22.4312 11.9624C22.7551 11.7914 23.0092 11.562 23.1936 11.2741C23.378 10.9863 23.4703 10.6602 23.4703 10.2958V9.19602C23.3803 9.2545 23.2566 9.30848 23.0992 9.35795C22.9462 9.40294 22.7731 9.44567 22.5796 9.48615C22.3862 9.52214 22.1928 9.55587 21.9994 9.58736C21.806 9.61435 21.6305 9.63909 21.4731 9.66158C21.1357 9.71106 20.8411 9.78977 20.5892 9.89773C20.3373 10.0057 20.1417 10.1519 20.0022 10.3363C19.8628 10.5162 19.7931 10.7411 19.7931 11.011C19.7931 11.4023 19.9347 11.7015 20.2181 11.9084C20.506 12.1108 20.8704 12.212 21.3112 12.212ZM33.2368 14.2024C32.1752 14.2024 31.2621 13.9775 30.4974 13.5277C29.7372 13.0734 29.1525 12.4437 28.7432 11.6385C28.3383 10.8333 28.1359 9.90672 28.1359 8.85866C28.1359 7.79711 28.3406 6.866 28.7499 6.06534C29.1637 5.26018 29.7507 4.63269 30.5109 4.18288C31.2711 3.72857 32.1752 3.50142 33.2233 3.50142C34.1274 3.50142 34.9191 3.6656 35.5983 3.99396C36.2775 4.32232 36.815 4.78338 37.2108 5.37713C37.6067 5.97088 37.8248 6.66809 37.8653 7.46875H35.153C35.0765 6.95147 34.8741 6.53539 34.5457 6.22053C34.2219 5.90116 33.7968 5.74148 33.2705 5.74148C32.8252 5.74148 32.4361 5.86293 32.1032 6.10582C31.7749 6.34422 31.5185 6.69283 31.3341 7.15163C31.1497 7.61044 31.0574 8.16596 31.0574 8.81818C31.0574 9.4794 31.1474 10.0417 31.3273 10.505C31.5117 10.9683 31.7704 11.3214 32.1032 11.5643C32.4361 11.8072 32.8252 11.9286 33.2705 11.9286C33.5989 11.9286 33.8935 11.8612 34.1544 11.7262C34.4198 11.5913 34.6379 11.3956 34.8089 11.1392C34.9843 10.8783 35.099 10.5657 35.153 10.2013H37.8653C37.8203 10.993 37.6044 11.6902 37.2176 12.293C36.8353 12.8912 36.3067 13.359 35.632 13.6964C34.9573 14.0337 34.1589 14.2024 33.2368 14.2024ZM39.7056 14V3.63636H42.4922V5.4446H42.6001C42.7891 4.80137 43.1062 4.31558 43.5515 3.98722C43.9968 3.65436 44.5096 3.48793 45.0898 3.48793C45.2338 3.48793 45.389 3.49692 45.5554 3.51491C45.7218 3.53291 45.868 3.55765 45.994 3.58913V6.13956C45.859 6.09908 45.6723 6.06309 45.4339 6.0316C45.1955 6.00012 44.9774 5.98438 44.7795 5.98438C44.3567 5.98438 43.9788 6.07659 43.646 6.26101C43.3176 6.44093 43.0567 6.69283 42.8633 7.01669C42.6744 7.34055 42.5799 7.7139 42.5799 8.13672V14H39.7056ZM51.6801 14.2024C50.6321 14.2024 49.7257 13.9798 48.961 13.5344C48.2008 13.0846 47.6138 12.4594 47.2 11.6587C46.7862 10.8536 46.5793 9.92022 46.5793 8.85866C46.5793 7.78812 46.7862 6.85251 47.2 6.05185C47.6138 5.24669 48.2008 4.62145 48.961 4.17614C49.7257 3.72633 50.6321 3.50142 51.6801 3.50142C52.7282 3.50142 53.6323 3.72633 54.3925 4.17614C55.1572 4.62145 55.7464 5.24669 56.1602 6.05185C56.5741 6.85251 56.781 7.78812 56.781 8.85866C56.781 9.92022 56.5741 10.8536 56.1602 11.6587C55.7464 12.4594 55.1572 13.0846 54.3925 13.5344C53.6323 13.9798 52.7282 14.2024 51.6801 14.2024ZM51.6936 11.9759C52.1704 11.9759 52.5685 11.8409 52.8879 11.571C53.2072 11.2966 53.4479 10.9233 53.6098 10.451C53.7762 9.97869 53.8595 9.44117 53.8595 8.83842C53.8595 8.23568 53.7762 7.69815 53.6098 7.22585C53.4479 6.75355 53.2072 6.38021 52.8879 6.10582C52.5685 5.83144 52.1704 5.69425 51.6936 5.69425C51.2123 5.69425 50.8075 5.83144 50.4791 6.10582C50.1553 6.38021 49.9101 6.75355 49.7437 7.22585C49.5818 7.69815 49.5008 8.23568 49.5008 8.83842C49.5008 9.44117 49.5818 9.97869 49.7437 10.451C49.9101 10.9233 50.1553 11.2966 50.4791 11.571C50.8075 11.8409 51.2123 11.9759 51.6936 11.9759Z" fill="#48A6FB"/>
<path d="M63.6024 14H58.7039V0.181818H63.6428C65.0328 0.181818 66.2293 0.458451 67.2323 1.01172C68.2354 1.56049 69.0068 2.3499 69.5466 3.37997C70.0909 4.41004 70.363 5.64252 70.363 7.07741C70.363 8.51681 70.0909 9.75379 69.5466 10.7884C69.0068 11.8229 68.2309 12.6168 67.2188 13.1701C66.2113 13.7234 65.0058 14 63.6024 14ZM61.6254 11.4968H63.4809C64.3445 11.4968 65.071 11.3439 65.6602 11.038C66.254 10.7276 66.6993 10.2486 66.9962 9.60085C67.2976 8.94863 67.4482 8.10748 67.4482 7.07741C67.4482 6.05634 67.2976 5.22195 66.9962 4.57422C66.6993 3.92649 66.2562 3.44969 65.667 3.14382C65.0777 2.83795 64.3513 2.68501 63.4877 2.68501H61.6254V11.4968ZM72.5272 0.181818H76.1301L79.9355 9.46591H80.0975L83.9029 0.181818H87.5059V14H84.6721V5.00604H84.5574L80.9814 13.9325H79.0517L75.4757 4.9723H75.361V14H72.5272V0.181818Z" fill="#E9EDF0"/>
</svg>
