<svg width="41" height="40" viewBox="0 0 41 40" fill="none" xmlns="http://www.w3.org/2000/svg">
<g clip-path="url(#clip0_504_3898)">
<path d="M20.1482 40C19.0076 40 18.0638 39.3858 18.0638 38.6314C18.0638 37.8772 18.9962 37.26 20.1482 37.26C21.3002 37.26 22.2325 37.8745 22.2325 38.6314C22.2325 39.3886 21.3002 40 20.1482 40ZM26.1989 38.6314C26.1989 38.1431 25.5973 37.7486 24.853 37.7486C24.1088 37.7486 23.5099 38.1431 23.5099 38.6314C23.5099 39.12 24.1117 39.5114 24.853 39.5114C25.5944 39.5114 26.1989 39.1172 26.1989 38.6314ZM14.1002 38.6314C14.1002 39.1172 14.6991 39.5114 15.4434 39.5114C16.1876 39.5114 16.7864 39.1172 16.7864 38.6314C16.7864 38.1458 16.1847 37.7486 15.4434 37.7486C14.702 37.7486 14.0917 38.1431 14.0917 38.6314H14.1002ZM11.551 35.1231C9.518 34.0231 8.09234 32.3145 7.41369 29.6204H6.51554C2.8486 29.6204 2.86001 20.7208 6.51554 20.7208H7.53345C8.03495 18.6109 9.11314 16.6826 10.6472 15.1524L11.0065 9.17265C11.1406 6.94415 13.0452 6.94415 13.1792 9.17265L13.4216 13.2153C15.3264 12.2839 17.5903 11.8125 20.1538 11.8125C26.6208 11.8125 31.2317 14.7724 32.7742 20.7208H33.7865C37.4532 20.7208 37.4418 29.6204 33.7865 29.6204H32.8883C32.2095 32.3145 30.7809 34.0258 28.748 35.1258C30.271 35.7708 31.7132 36.5926 33.0452 37.5745C33.2935 37.7588 33.5902 37.8662 33.8988 37.8834C34.2074 37.9006 34.5145 37.8271 34.7815 37.6714L38.6966 35.4086C39.1862 35.1249 39.5929 34.7169 39.8754 34.2262C40.1582 33.7351 40.3074 33.1785 40.3077 32.6117V13.0239C40.3074 12.4571 40.1582 11.9004 39.8754 11.4095C39.5929 10.9186 39.1862 10.5108 38.6966 10.2269L21.765 0.432985C21.2752 0.149349 20.7194 0 20.1538 0C19.5881 0 19.0325 0.149349 18.5427 0.432985L1.61395 10.2269C1.12363 10.5102 0.716298 10.9178 0.433003 11.4088C0.149709 11.8998 0.000382037 12.4568 0 13.0239V32.6117C0.000382037 33.1788 0.149709 33.736 0.433003 34.2268C0.716298 34.7178 1.12363 35.1255 1.61395 35.4086L5.52323 37.6714C5.79099 37.8255 6.09754 37.8985 6.40582 37.8812C6.71409 37.864 7.01074 37.7572 7.25972 37.5745C8.58899 36.5911 10.0294 35.7683 11.551 35.1231ZM29.9171 24.8377C29.9171 32.8917 27.5448 33.0631 20.1482 33.0631C12.7516 33.0631 10.3792 32.8917 10.3792 24.8377C10.3792 20.7322 12.7516 16.6152 20.1482 16.6152C27.5448 16.6152 29.9171 20.7208 29.9171 24.8263V24.8377ZM14.049 20.7093C12.6233 22.015 13.0225 25.9406 16.3301 22.8978C17.7587 21.5779 17.3623 17.6523 14.049 20.6979V20.7093Z" fill="url(#paint0_linear_504_3898)"/>
</g>
<defs>
<linearGradient id="paint0_linear_504_3898" x1="0" y1="0" x2="40.8626" y2="2.04387" gradientUnits="userSpaceOnUse">
<stop stop-color="#0C22E5"/>
<stop offset="1" stop-color="#2A98D5"/>
</linearGradient>
<clipPath id="clip0_504_3898">
<rect width="40.3077" height="40" fill="white"/>
</clipPath>
</defs>
</svg>
