<svg width="124" height="140" viewBox="0 0 124 140" fill="none" xmlns="http://www.w3.org/2000/svg">
<path d="M108.121 43.3152L61.9004 16.6753L15.7104 43.3353V68.2253L33.3804 50.3553L62.8203 78.8052L80.7603 67.6553L108.121 87.7552V43.3152Z" fill="#73B1EA"/>
<path d="M6.60549e-06 39.7653V100.235C-0.00196453 101.908 0.437252 103.551 1.27296 104.999C2.10866 106.448 3.31156 107.65 4.76026 108.485L57.1304 138.725C58.5795 139.561 60.2224 140 61.895 140C63.5677 140 65.2111 139.561 66.6602 138.725L119.03 108.485C120.479 107.65 121.682 106.448 122.518 104.999C123.353 103.551 123.792 101.908 123.79 100.235V39.7653C123.792 38.093 123.353 36.4499 122.518 35.0015C121.682 33.553 120.479 32.3505 119.03 31.5153L66.6602 1.27527C65.2111 0.439814 63.5677 0 61.895 0C60.2224 0 58.5795 0.439814 57.1304 1.27527L4.76026 31.5153C3.31156 32.3505 2.10866 33.553 1.27296 35.0015C0.437252 36.4499 -0.00196453 38.093 6.60549e-06 39.7653ZM9.52003 39.7653L61.9004 9.52527L114.27 39.7653V100.235L80.9404 75.4952L66.1904 84.0153L76.4004 100.445L33.3301 59.0052L9.49024 83.7452L9.52003 39.7653Z" fill="#11093F"/>
</svg>
