<svg width="19" height="19" viewBox="0 0 19 19" fill="none" xmlns="http://www.w3.org/2000/svg">
<path d="M9.5 10.25V16.25L6.5 13.25" stroke="white" stroke-width="1.5" stroke-linecap="round" stroke-linejoin="round"/>
<path d="M9.5 16.25L12.5 13.25" stroke="white" stroke-width="1.5" stroke-linecap="round" stroke-linejoin="round"/>
<path d="M3.79428 11.9514C3.18173 11.4156 2.70215 10.7446 2.39341 9.99162C2.08467 9.23859 1.95522 8.4241 2.0153 7.61247C2.07538 6.80083 2.32332 6.01428 2.73957 5.31492C3.15581 4.61556 3.72895 4.02254 4.41372 3.58271C5.09849 3.14288 5.87614 2.86827 6.68525 2.78057C7.49437 2.69287 8.3128 2.79448 9.0759 3.07739C9.83901 3.36029 10.5259 3.81673 11.0823 4.41066C11.6387 5.0046 12.0495 5.71976 12.282 6.49968H13.6245C14.3536 6.49959 15.0631 6.73557 15.6468 7.17232C16.2306 7.60907 16.6572 8.2231 16.8629 8.92254C17.0685 9.62197 17.0422 10.3692 16.7878 11.0524C16.5334 11.7356 16.0646 12.3181 15.4515 12.7127" stroke="white" stroke-width="1.5" stroke-linecap="round" stroke-linejoin="round"/>
</svg>
