<svg width="21" height="16" viewBox="0 0 21 16" fill="none" xmlns="http://www.w3.org/2000/svg">
<path d="M19.4222 14.9462H6.43038C5.89492 14.9462 5.46094 14.4962 5.46094 13.9409C5.46094 13.3856 5.89492 12.9355 6.43038 12.9355H19.4219C19.9573 12.9355 20.3913 13.3856 20.3913 13.9409C20.3913 14.4962 19.9576 14.9462 19.4222 14.9462Z" fill="#6E7478"/>
<path d="M19.4222 8.63472H6.43038C5.89492 8.63472 5.46094 8.18466 5.46094 7.62937C5.46094 7.07408 5.89492 6.62402 6.43038 6.62402H19.4219C19.9573 6.62402 20.3913 7.07408 20.3913 7.62937C20.3916 8.18466 19.9576 8.63472 19.4222 8.63472Z" fill="#6E7478"/>
<path d="M19.4222 2.32417H6.43038C5.89492 2.32417 5.46094 1.87411 5.46094 1.31882C5.46094 0.763537 5.89492 0.313477 6.43038 0.313477H19.4219C19.9573 0.313477 20.3913 0.763537 20.3913 1.31882C20.3913 1.87411 19.9576 2.32417 19.4222 2.32417Z" fill="#6E7478"/>
<path d="M2.26485 2.74724C2.9839 2.74724 3.56681 2.14274 3.56681 1.39706C3.56681 0.651371 2.9839 0.046875 2.26485 0.046875C1.5458 0.046875 0.962891 0.651371 0.962891 1.39706C0.962891 2.14274 1.5458 2.74724 2.26485 2.74724Z" fill="#6E7478"/>
<path d="M2.26485 8.97966C2.9839 8.97966 3.56681 8.37516 3.56681 7.62948C3.56681 6.88379 2.9839 6.2793 2.26485 6.2793C1.5458 6.2793 0.962891 6.88379 0.962891 7.62948C0.962891 8.37516 1.5458 8.97966 2.26485 8.97966Z" fill="#6E7478"/>
<path d="M2.26485 15.2131C2.9839 15.2131 3.56681 14.6086 3.56681 13.8629C3.56681 13.1172 2.9839 12.5127 2.26485 12.5127C1.5458 12.5127 0.962891 13.1172 0.962891 13.8629C0.962891 14.6086 1.5458 15.2131 2.26485 15.2131Z" fill="#6E7478"/>
</svg>
