<svg width="191" height="40" viewBox="0 0 191 40" fill="none" xmlns="http://www.w3.org/2000/svg">
<g clip-path="url(#clip0_504_3888)">
<path d="M20.1482 40C19.0076 40 18.0638 39.3858 18.0638 38.6314C18.0638 37.8772 18.9962 37.26 20.1482 37.26C21.3002 37.26 22.2325 37.8745 22.2325 38.6314C22.2325 39.3886 21.3002 40 20.1482 40ZM26.1989 38.6314C26.1989 38.1431 25.5973 37.7486 24.853 37.7486C24.1088 37.7486 23.5099 38.1431 23.5099 38.6314C23.5099 39.12 24.1117 39.5114 24.853 39.5114C25.5944 39.5114 26.1989 39.1172 26.1989 38.6314ZM14.1002 38.6314C14.1002 39.1172 14.6991 39.5114 15.4434 39.5114C16.1876 39.5114 16.7864 39.1172 16.7864 38.6314C16.7864 38.1458 16.1847 37.7486 15.4434 37.7486C14.702 37.7486 14.0917 38.1431 14.0917 38.6314H14.1002ZM11.551 35.1231C9.518 34.0231 8.09234 32.3145 7.41369 29.6204H6.51554C2.8486 29.6204 2.86001 20.7208 6.51554 20.7208H7.53345C8.03495 18.6109 9.11314 16.6826 10.6472 15.1524L11.0065 9.17265C11.1406 6.94415 13.0452 6.94415 13.1792 9.17265L13.4216 13.2153C15.3264 12.2839 17.5903 11.8125 20.1538 11.8125C26.6208 11.8125 31.2317 14.7724 32.7742 20.7208H33.7865C37.4532 20.7208 37.4418 29.6204 33.7865 29.6204H32.8883C32.2095 32.3145 30.7809 34.0258 28.748 35.1258C30.271 35.7708 31.7132 36.5926 33.0452 37.5745C33.2935 37.7588 33.5902 37.8662 33.8988 37.8834C34.2074 37.9006 34.5145 37.8271 34.7815 37.6714L38.6966 35.4086C39.1862 35.1249 39.5929 34.7169 39.8754 34.2262C40.1582 33.7351 40.3074 33.1785 40.3077 32.6117V13.0239C40.3074 12.4571 40.1582 11.9004 39.8754 11.4095C39.5929 10.9186 39.1862 10.5108 38.6966 10.2269L21.765 0.432985C21.2752 0.149349 20.7194 0 20.1538 0C19.5881 0 19.0325 0.149349 18.5427 0.432985L1.61395 10.2269C1.12363 10.5102 0.716298 10.9178 0.433003 11.4088C0.149709 11.8998 0.000382037 12.4568 0 13.0239V32.6117C0.000382037 33.1788 0.149709 33.736 0.433003 34.2268C0.716298 34.7178 1.12363 35.1255 1.61395 35.4086L5.52323 37.6714C5.79099 37.8255 6.09754 37.8985 6.40582 37.8812C6.71409 37.864 7.01074 37.7572 7.25972 37.5745C8.58899 36.5911 10.0294 35.7683 11.551 35.1231ZM29.9171 24.8377C29.9171 32.8917 27.5448 33.0631 20.1482 33.0631C12.7516 33.0631 10.3792 32.8917 10.3792 24.8377C10.3792 20.7322 12.7516 16.6152 20.1482 16.6152C27.5448 16.6152 29.9171 20.7208 29.9171 24.8263V24.8377ZM14.049 20.7093C12.6233 22.015 13.0225 25.9406 16.3301 22.8978C17.7587 21.5779 17.3623 17.6523 14.049 20.6979V20.7093Z" fill="url(#paint0_linear_504_3888)"/>
</g>
<path d="M54.3067 29V11.1989H61.1212C62.4076 11.1989 63.4767 11.4017 64.3286 11.8073C65.1862 12.2071 65.8265 12.7547 66.2495 13.4501C66.6783 14.1454 66.8927 14.9335 66.8927 15.8143C66.8927 16.5386 66.7536 17.1587 66.4755 17.6744C66.1973 18.1843 65.8236 18.5986 65.3542 18.9173C64.8848 19.236 64.3604 19.4649 63.781 19.604V19.7778C64.4126 19.8126 65.0181 20.0067 65.5976 20.3602C66.1828 20.7079 66.6609 21.2004 67.0318 21.8378C67.4026 22.4752 67.588 23.2459 67.588 24.1499C67.588 25.0712 67.3649 25.8999 66.9188 26.6358C66.4726 27.3659 65.8004 27.9425 64.9022 28.3655C64.0041 28.7885 62.8741 29 61.5124 29H54.3067ZM57.5314 26.3055H60.9995C62.1701 26.3055 63.0132 26.0824 63.5289 25.6362C64.0504 25.1842 64.3112 24.6048 64.3112 23.8978C64.3112 23.3705 64.1808 22.8953 63.92 22.4723C63.6593 22.0435 63.2884 21.7074 62.8075 21.4641C62.3265 21.2149 61.7528 21.0903 61.0865 21.0903H57.5314V26.3055ZM57.5314 18.7696H60.7214C61.2777 18.7696 61.7789 18.6682 62.2251 18.4653C62.6713 18.2567 63.0219 17.9641 63.2768 17.5875C63.5376 17.205 63.668 16.753 63.668 16.2315C63.668 15.5419 63.4246 14.9741 62.9378 14.5279C62.4569 14.0817 61.7412 13.8586 60.7909 13.8586H57.5314V18.7696ZM70.2543 29V15.6491H73.4008V29H70.2543ZM71.8362 13.7543C71.3379 13.7543 70.9091 13.5892 70.5498 13.2589C70.1906 12.9228 70.0109 12.52 70.0109 12.0507C70.0109 11.5755 70.1906 11.1728 70.5498 10.8425C70.9091 10.5064 71.3379 10.3384 71.8362 10.3384C72.3404 10.3384 72.7692 10.5064 73.1226 10.8425C73.4819 11.1728 73.6615 11.5755 73.6615 12.0507C73.6615 12.52 73.4819 12.9228 73.1226 13.2589C72.7692 13.5892 72.3404 13.7543 71.8362 13.7543ZM76.4625 29V27.0008L83.3466 18.3697V18.2567H76.6885V15.6491H87.1971V17.7961L80.6434 26.2794V26.3924H87.4231V29H76.4625ZM90.5196 29V11.1989H97.195C98.5626 11.1989 99.7099 11.4364 100.637 11.9116C101.57 12.3868 102.274 13.0531 102.749 13.9108C103.23 14.7626 103.471 15.7563 103.471 16.8921C103.471 18.0336 103.227 19.0245 102.741 19.8647C102.26 20.6992 101.55 21.3453 100.611 21.8031C99.6722 22.255 98.5191 22.481 97.1516 22.481H92.3971V19.8039H96.717C97.5166 19.8039 98.1714 19.6938 98.6814 19.4736C99.1913 19.2476 99.5679 18.9202 99.8113 18.4914C100.06 18.0568 100.185 17.5237 100.185 16.8921C100.185 16.2605 100.06 15.7216 99.8113 15.2754C99.5621 14.8234 99.1826 14.4815 98.6727 14.2497C98.1627 14.0122 97.505 13.8934 96.6996 13.8934H93.7443V29H90.5196ZM99.7157 20.9339L104.123 29H100.524L96.1955 20.9339H99.7157ZM112.019 29.2608C110.681 29.2608 109.525 28.9826 108.551 28.4263C107.583 27.8643 106.839 27.0704 106.317 26.0447C105.796 25.0133 105.535 23.7993 105.535 22.4028C105.535 21.0295 105.796 19.8242 106.317 18.7869C106.845 17.7439 107.58 16.9327 108.525 16.3532C109.47 15.7679 110.579 15.4753 111.854 15.4753C112.677 15.4753 113.453 15.6086 114.183 15.8751C114.919 16.1359 115.568 16.5415 116.13 17.092C116.698 17.6425 117.145 18.3437 117.469 19.1955C117.794 20.0415 117.956 21.0498 117.956 22.2203V23.1851H107.013V21.0642H114.94C114.934 20.4616 114.803 19.9256 114.549 19.4562C114.294 18.9811 113.937 18.6073 113.479 18.335C113.027 18.0626 112.5 17.9264 111.897 17.9264C111.254 17.9264 110.689 18.0829 110.203 18.3958C109.716 18.7029 109.336 19.1085 109.064 19.6127C108.797 20.111 108.661 20.6586 108.655 21.2555V23.1069C108.655 23.8833 108.797 24.5497 109.081 25.106C109.365 25.6565 109.762 26.0795 110.272 26.375C110.782 26.6648 111.379 26.8096 112.063 26.8096C112.52 26.8096 112.935 26.7459 113.306 26.6184C113.676 26.4851 113.998 26.291 114.27 26.036C114.543 25.7811 114.748 25.4653 114.888 25.0886L117.825 25.4189C117.64 26.1954 117.287 26.8734 116.765 27.4528C116.249 28.0265 115.589 28.4727 114.783 28.7914C113.978 29.1043 113.056 29.2608 112.019 29.2608ZM120.618 34.0066V15.6491H123.712V17.8569H123.895C124.057 17.5324 124.286 17.1876 124.581 16.8226C124.877 16.4517 125.277 16.1359 125.781 15.8751C126.285 15.6086 126.928 15.4753 127.71 15.4753C128.742 15.4753 129.672 15.739 130.5 16.2663C131.335 16.7878 131.995 17.5614 132.482 18.587C132.975 19.6069 133.221 20.8585 133.221 22.342C133.221 23.808 132.981 25.0538 132.5 26.0795C132.019 27.1052 131.364 27.8874 130.535 28.4263C129.707 28.9652 128.768 29.2347 127.719 29.2347C126.954 29.2347 126.32 29.1072 125.815 28.8522C125.311 28.5973 124.906 28.2902 124.599 27.9309C124.297 27.5658 124.063 27.221 123.895 26.8965H123.764V34.0066H120.618ZM123.703 22.3246C123.703 23.188 123.825 23.9442 124.068 24.5932C124.318 25.2422 124.674 25.7492 125.138 26.1143C125.607 26.4735 126.175 26.6532 126.841 26.6532C127.536 26.6532 128.119 26.4677 128.588 26.0969C129.058 25.7202 129.411 25.2074 129.649 24.5584C129.892 23.9036 130.014 23.159 130.014 22.3246C130.014 21.4959 129.895 20.76 129.657 20.1168C129.42 19.4736 129.066 18.9695 128.597 18.6044C128.128 18.2394 127.542 18.0568 126.841 18.0568C126.169 18.0568 125.598 18.2336 125.129 18.587C124.659 18.9405 124.303 19.4359 124.06 20.0734C123.822 20.7108 123.703 21.4612 123.703 22.3246ZM139.062 11.1989V29H135.916V11.1989H139.062ZM144.253 34.0066C143.825 34.0066 143.428 33.9718 143.063 33.9023C142.703 33.8385 142.416 33.7632 142.202 33.6763L142.932 31.2251C143.39 31.3584 143.798 31.4222 144.158 31.4164C144.517 31.4106 144.833 31.2976 145.105 31.0774C145.383 30.863 145.618 30.5037 145.809 29.9996L146.079 29.2781L141.237 15.6491H144.575L147.652 25.7318H147.791L150.877 15.6491H154.223L148.877 30.6167C148.628 31.3237 148.298 31.9292 147.887 32.4333C147.475 32.9433 146.971 33.3315 146.374 33.598C145.783 33.8704 145.076 34.0066 144.253 34.0066ZM157.502 29.1912C156.975 29.1912 156.523 29.0058 156.146 28.6349C155.769 28.2641 155.584 27.8121 155.59 27.279C155.584 26.7575 155.769 26.3113 156.146 25.9404C156.523 25.5696 156.975 25.3841 157.502 25.3841C158.012 25.3841 158.455 25.5696 158.832 25.9404C159.214 26.3113 159.408 26.7575 159.414 27.279C159.408 27.6325 159.316 27.9541 159.136 28.2438C158.962 28.5335 158.73 28.7653 158.441 28.9392C158.157 29.1072 157.844 29.1912 157.502 29.1912ZM168.486 29.2608C167.154 29.2608 166.009 28.9681 165.053 28.3829C164.103 27.7976 163.37 26.9893 162.854 25.9578C162.344 24.9206 162.089 23.7269 162.089 22.3767C162.089 21.0208 162.35 19.8242 162.871 18.7869C163.393 17.7439 164.129 16.9327 165.079 16.3532C166.035 15.7679 167.165 15.4753 168.469 15.4753C169.553 15.4753 170.512 15.6752 171.346 16.0751C172.186 16.4691 172.856 17.0283 173.354 17.7526C173.852 18.4711 174.136 19.3114 174.206 20.2733H171.198C171.077 19.6301 170.787 19.0941 170.329 18.6653C169.877 18.2307 169.272 18.0134 168.513 18.0134C167.869 18.0134 167.304 18.1872 166.818 18.5349C166.331 18.8768 165.951 19.3693 165.679 20.0125C165.412 20.6557 165.279 21.4264 165.279 22.3246C165.279 23.2343 165.412 24.0166 165.679 24.6714C165.946 25.3204 166.319 25.8216 166.8 26.1751C167.287 26.5228 167.858 26.6966 168.513 26.6966C168.976 26.6966 169.39 26.6097 169.756 26.4359C170.126 26.2562 170.436 25.9984 170.686 25.6623C170.935 25.3262 171.106 24.9177 171.198 24.4367H174.206C174.13 25.3812 173.852 26.2186 173.371 26.9487C172.89 27.673 172.236 28.2409 171.407 28.6523C170.578 29.0579 169.605 29.2608 168.486 29.2608ZM182.613 29.2608C181.309 29.2608 180.179 28.9739 179.223 28.4003C178.267 27.8266 177.525 27.024 176.998 25.9926C176.477 24.9611 176.216 23.7559 176.216 22.3767C176.216 20.9976 176.477 19.7894 176.998 18.7522C177.525 17.7149 178.267 16.9095 179.223 16.3358C180.179 15.7621 181.309 15.4753 182.613 15.4753C183.917 15.4753 185.047 15.7621 186.003 16.3358C186.959 16.9095 187.698 17.7149 188.219 18.7522C188.747 19.7894 189.01 20.9976 189.01 22.3767C189.01 23.7559 188.747 24.9611 188.219 25.9926C187.698 27.024 186.959 27.8266 186.003 28.4003C185.047 28.9739 183.917 29.2608 182.613 29.2608ZM182.63 26.7401C183.337 26.7401 183.928 26.546 184.404 26.1577C184.879 25.7637 185.232 25.2364 185.464 24.5758C185.702 23.9152 185.82 23.1793 185.82 22.368C185.82 21.551 185.702 20.8122 185.464 20.1516C185.232 19.4852 184.879 18.955 184.404 18.561C183.928 18.1669 183.337 17.9699 182.63 17.9699C181.906 17.9699 181.304 18.1669 180.823 18.561C180.347 18.955 179.991 19.4852 179.753 20.1516C179.522 20.8122 179.406 21.551 179.406 22.368C179.406 23.1793 179.522 23.9152 179.753 24.5758C179.991 25.2364 180.347 25.7637 180.823 26.1577C181.304 26.546 181.906 26.7401 182.63 26.7401Z" fill="white"/>
<defs>
<linearGradient id="paint0_linear_504_3888" x1="0" y1="0" x2="40.8626" y2="2.04387" gradientUnits="userSpaceOnUse">
<stop stop-color="#0C22E5"/>
<stop offset="1" stop-color="#2A98D5"/>
</linearGradient>
<clipPath id="clip0_504_3888">
<rect width="40.3077" height="40" fill="white"/>
</clipPath>
</defs>
</svg>
