<svg width="19" height="19" viewBox="0 0 19 19" fill="none" xmlns="http://www.w3.org/2000/svg">
<g clip-path="url(#clip0_1137_4456)">
<path d="M18.4438 0C18.1363 0 17.8871 0.249189 17.8871 0.556641V18.4434C17.8871 18.7508 18.1363 19 18.4438 19C18.7512 19 19.0004 18.7508 19.0004 18.4434V0.556641C19.0004 0.249189 18.7512 0 18.4438 0ZM7.19498 7.80269L5.16773 12.8706C5.13395 12.955 5.12138 13.0465 5.13114 13.1369C5.1409 13.2274 5.17267 13.314 5.22369 13.3894C5.27467 13.4647 5.34333 13.5264 5.42367 13.569C5.50401 13.6116 5.59357 13.6339 5.68452 13.6339H9.73887C9.92367 13.6339 10.0963 13.5423 10.1998 13.3894C10.2509 13.314 10.2826 13.2274 10.2924 13.1369C10.3021 13.0465 10.2896 12.955 10.2558 12.8706L8.22855 7.80269C8.18725 7.6994 8.11594 7.61085 8.02382 7.54847C7.93171 7.4861 7.82301 7.45276 7.71177 7.45276C7.60052 7.45276 7.49183 7.4861 7.39971 7.54847C7.30759 7.61085 7.23628 7.6994 7.19498 7.80269ZM8.91667 12.5206H6.50671L7.71177 9.50828L8.91667 12.5206Z" fill="#6E7478"/>
<path d="M8.22815 0.349928C8.18684 0.246633 8.11553 0.158086 8.02342 0.0957118C7.9313 0.0333379 7.82261 0 7.71136 0C7.60011 0 7.49142 0.0333379 7.3993 0.0957118C7.30719 0.158086 7.23588 0.246633 7.19458 0.349928L0.0398887 18.2366C0.00606645 18.3211 -0.00653525 18.4126 0.00318715 18.503C0.0129095 18.5935 0.0446595 18.6801 0.0956567 18.7555C0.146654 18.8308 0.215343 18.8925 0.295709 18.9351C0.376074 18.9777 0.465665 19 0.556637 19H3.53771C3.64897 19 3.75769 18.9667 3.84983 18.9043C3.94197 18.8419 4.01331 18.7534 4.05464 18.65L4.86856 16.6151H10.5541L11.3681 18.65C11.4094 18.7533 11.4807 18.8419 11.5728 18.9043C11.6649 18.9666 11.7736 19 11.8849 19H14.8661C15.0507 19 15.2234 18.9084 15.3269 18.7554C15.3779 18.6801 15.4097 18.5934 15.4194 18.503C15.4292 18.4126 15.4166 18.3211 15.3828 18.2366L8.22815 0.349928ZM12.2618 17.8867L11.4476 15.8518C11.4064 15.7485 11.3351 15.6599 11.243 15.5975C11.1508 15.5352 11.0421 15.5018 10.9309 15.5018H4.49168C4.38043 15.5018 4.27173 15.5352 4.17962 15.5976C4.0875 15.6599 4.01619 15.7485 3.97489 15.8518L3.16097 17.8867H1.37883L7.71136 2.05548L14.0439 17.8867H12.2618Z" fill="#6E7478"/>
</g>
<defs>
<clipPath id="clip0_1137_4456">
<rect width="19" height="19" fill="white"/>
</clipPath>
</defs>
</svg>
