<svg width="22" height="19" viewBox="0 0 22 19" fill="none" xmlns="http://www.w3.org/2000/svg">
<path d="M19.5 5.75H14V2.5C13.9992 1.8372 13.7356 1.20178 13.2669 0.73311C12.7982 0.264441 12.1628 0.000793929 11.5 0H2.5C1.8372 0.000793929 1.20178 0.264441 0.73311 0.73311C0.264441 1.20178 0.000793929 1.8372 0 2.5V8.5C0.000793929 9.1628 0.264441 9.79822 0.73311 10.2669C1.20178 10.7356 1.8372 10.9992 2.5 11V12.045C2.49963 12.2423 2.55796 12.4352 2.66756 12.5992C2.77717 12.7632 2.9331 12.8909 3.1155 12.966C3.2987 13.0423 3.50047 13.0624 3.69511 13.0236C3.88975 12.9849 4.06846 12.8891 4.2085 12.7485C4.22675 12.731 4.24348 12.7119 4.2585 12.6915L5.5025 11H8V14.25C8.00079 14.9128 8.26444 15.5482 8.73311 16.0169C9.20178 16.4856 9.8372 16.7492 10.5 16.75H16.043L17.793 18.5C17.9329 18.6398 18.111 18.735 18.305 18.7736C18.4989 18.8122 18.7 18.7924 18.8827 18.7167C19.0654 18.641 19.2215 18.5129 19.3314 18.3485C19.4413 18.1841 19.5 17.9908 19.5 17.793V16.75C20.1628 16.7492 20.7982 16.4856 21.2669 16.0169C21.7356 15.5482 21.9992 14.9128 22 14.25V8.25C21.9992 7.5872 21.7356 6.95178 21.2669 6.48311C20.7982 6.01444 20.1628 5.75079 19.5 5.75ZM5.25 10C5.17208 10.0004 5.09534 10.019 5.02589 10.0544C4.95644 10.0897 4.89621 10.1408 4.85 10.2035L3.5 12.0335V10.5C3.5 10.3674 3.44732 10.2402 3.35355 10.1464C3.25979 10.0527 3.13261 10 3 10H2.5C2.10218 10 1.72064 9.84197 1.43934 9.56066C1.15804 9.27936 1 8.89783 1 8.5V2.5C1 2.10218 1.15804 1.72064 1.43934 1.43934C1.72064 1.15804 2.10218 1 2.5 1H11.5C11.8978 1 12.2794 1.15804 12.5607 1.43934C12.842 1.72064 13 2.10218 13 2.5V5.75H10.5C9.96806 5.75158 9.45074 5.92425 9.0245 6.2425L7.455 2.7925C7.41523 2.70521 7.35118 2.6312 7.27051 2.5793C7.18983 2.5274 7.09593 2.4998 7 2.4998C6.90407 2.4998 6.81017 2.5274 6.72949 2.5793C6.64882 2.6312 6.58477 2.70521 6.545 2.7925L4.045 8.2925C4.0179 8.35238 4.00287 8.41701 4.00076 8.4827C3.99866 8.54839 4.00953 8.61385 4.03275 8.67533C4.05597 8.73682 4.09108 8.79312 4.13608 8.84102C4.18108 8.88893 4.23508 8.92749 4.295 8.9545C4.35925 8.98427 4.42918 8.99979 4.5 9C4.59596 8.99997 4.68989 8.97233 4.77057 8.92038C4.85125 8.86843 4.91527 8.79435 4.955 8.707L5.731 7H8.27L8.3055 7.0775C8.10788 7.4369 8.00289 7.83986 8 8.25V10H5.25ZM7.8155 6H6.1855L7 4.208L7.8155 6ZM21 14.25C21 14.6478 20.842 15.0294 20.5607 15.3107C20.2794 15.592 19.8978 15.75 19.5 15.75H19C18.8674 15.75 18.7402 15.8027 18.6464 15.8964C18.5527 15.9902 18.5 16.1174 18.5 16.25V17.793L16.6035 15.8965C16.5098 15.8027 16.3826 15.75 16.25 15.75H10.5C10.1022 15.75 9.72064 15.592 9.43934 15.3107C9.15804 15.0294 9 14.6478 9 14.25V8.25C9 7.85218 9.15804 7.47064 9.43934 7.18934C9.72064 6.90804 10.1022 6.75 10.5 6.75H19.5C19.8978 6.75 20.2794 6.90804 20.5607 7.18934C20.842 7.47064 21 7.85218 21 8.25V14.25Z" fill="#6E7478"/>
<path d="M17.5 9.5H15.5V8.5C15.5 8.36739 15.4473 8.24021 15.3536 8.14645C15.2598 8.05268 15.1326 8 15 8C14.8674 8 14.7402 8.05268 14.6464 8.14645C14.5527 8.24021 14.5 8.36739 14.5 8.5V9.5H12.5C12.3674 9.5 12.2402 9.55268 12.1464 9.64645C12.0527 9.74021 12 9.86739 12 10C12 10.1326 12.0527 10.2598 12.1464 10.3536C12.2402 10.4473 12.3674 10.5 12.5 10.5H16.21C16.0876 11.3494 15.6556 12.1237 14.997 12.674C14.6123 12.3527 14.3014 11.9523 14.0855 11.5C14.0583 11.4391 14.0192 11.3843 13.9706 11.3388C13.9219 11.2933 13.8646 11.2579 13.8021 11.2348C13.7396 11.2118 13.6731 11.2014 13.6065 11.2044C13.5399 11.2074 13.4746 11.2237 13.4144 11.2523C13.3542 11.2809 13.3003 11.3212 13.256 11.371C13.2116 11.4207 13.1776 11.4788 13.156 11.5418C13.1344 11.6049 13.1256 11.6716 13.1301 11.7381C13.1347 11.8046 13.1525 11.8695 13.1825 11.929C13.4148 12.4107 13.7325 12.8464 14.12 13.215C13.6757 13.4043 13.1975 13.5012 12.7145 13.5C12.6497 13.5003 12.5857 13.5136 12.5261 13.539C12.4666 13.5645 12.4127 13.6016 12.3678 13.6482C12.3228 13.6948 12.2876 13.7499 12.2643 13.8104C12.241 13.8708 12.23 13.9353 12.232 14C12.236 14.1344 12.2925 14.262 12.3893 14.3554C12.486 14.4488 12.6155 14.5007 12.75 14.5C13.5446 14.4997 14.3248 14.2874 15.01 13.885C15.7016 14.2857 16.4862 14.4978 17.2855 14.5C17.3503 14.4997 17.4143 14.4864 17.4739 14.461C17.5334 14.4355 17.5873 14.3984 17.6322 14.3518C17.6772 14.3052 17.7124 14.2501 17.7357 14.1896C17.759 14.1292 17.77 14.0647 17.768 14C17.764 13.8656 17.7075 13.738 17.6107 13.6446C17.514 13.5512 17.3845 13.4993 17.25 13.5C16.7822 13.4982 16.3197 13.4019 15.89 13.217C16.6348 12.4928 17.1051 11.5324 17.2205 10.5H17.5C17.6326 10.5 17.7598 10.4473 17.8536 10.3536C17.9473 10.2598 18 10.1326 18 10C18 9.86739 17.9473 9.74021 17.8536 9.64645C17.7598 9.55268 17.6326 9.5 17.5 9.5Z" fill="#6E7478"/>
</svg>
