<svg width="30" height="30" viewBox="0 0 30 30" fill="none" xmlns="http://www.w3.org/2000/svg">
<g clip-path="url(#clip0_1137_4390)">
<path fill-rule="evenodd" clip-rule="evenodd" d="M0.9375 6.5625C0.9375 3.45609 3.45609 0.9375 6.5625 0.9375H23.4375C26.5439 0.9375 29.0625 3.45609 29.0625 6.5625V19.6875C29.0625 22.7939 26.5439 25.3125 23.4375 25.3125H18.7069L15.7055 28.7423C15.6175 28.8429 15.509 28.9235 15.3873 28.9787C15.2657 29.0339 15.1336 29.0624 15 29.0624C14.8664 29.0624 14.7343 29.0339 14.6127 28.9787C14.491 28.9235 14.3825 28.8429 14.2945 28.7423L11.2936 25.3125H6.5625C3.45609 25.3125 0.9375 22.7939 0.9375 19.6875V6.5625ZM15 6.5625C15.2125 6.56251 15.4186 6.63469 15.5847 6.7672C15.7508 6.89972 15.8669 7.08471 15.9141 7.29187L16.433 9.57328C16.5505 10.0902 16.8118 10.5634 17.1867 10.9383C17.5616 11.3132 18.0348 11.5745 18.5517 11.692L20.8331 12.2109C21.0403 12.2581 21.2252 12.3743 21.3577 12.5404C21.4902 12.7064 21.5623 12.9126 21.5623 13.125C21.5623 13.3374 21.4902 13.5436 21.3577 13.7096C21.2252 13.8757 21.0403 13.9919 20.8331 14.0391L18.5517 14.558C18.0348 14.6755 17.5616 14.9368 17.1867 15.3117C16.8118 15.6866 16.5505 16.1598 16.433 16.6767L15.9141 18.9577C15.8669 19.1648 15.7507 19.3497 15.5846 19.4822C15.4186 19.6147 15.2124 19.6868 15 19.6868C14.7876 19.6868 14.5814 19.6147 14.4154 19.4822C14.2493 19.3497 14.1331 19.1648 14.0859 18.9577L13.567 16.6767C13.4495 16.1598 13.1882 15.6866 12.8133 15.3117C12.4384 14.9368 11.9652 14.6755 11.4483 14.558L9.16734 14.0391C8.96022 13.9919 8.77527 13.8757 8.64279 13.7096C8.51031 13.5436 8.43816 13.3374 8.43816 13.125C8.43816 12.9126 8.51031 12.7064 8.64279 12.5404C8.77527 12.3743 8.96022 12.2581 9.16734 12.2109L11.4483 11.692C11.9652 11.5745 12.4384 11.3132 12.8133 10.9383C13.1882 10.5634 13.4495 10.0902 13.567 9.57328L14.0859 7.29234C14.133 7.0851 14.2491 6.89999 14.4152 6.76739C14.5813 6.63478 14.7875 6.56253 15 6.5625Z" fill="url(#paint0_linear_1137_4390)"/>
</g>
<defs>
<linearGradient id="paint0_linear_1137_4390" x1="0.9375" y1="0.9375" x2="29.4508" y2="2.3528" gradientUnits="userSpaceOnUse">
<stop stop-color="#0C22E5"/>
<stop offset="1" stop-color="#2A98D5"/>
</linearGradient>
<clipPath id="clip0_1137_4390">
<rect width="30" height="30" fill="white"/>
</clipPath>
</defs>
</svg>
