<svg width="24" height="22" viewBox="0 0 24 22" fill="none" xmlns="http://www.w3.org/2000/svg">
<path d="M17.2349 15.5169C17.7863 14.9654 17.7863 14.0713 17.2349 13.5199M19.2319 17.5139C20.8863 15.8595 20.8863 13.1773 19.2319 11.5229M21.2289 19.511C23.9862 16.7536 23.9862 12.2832 21.2289 9.52584M10.9331 20.6326H3.3952L3.80461 16.1241C3.89794 15.0962 3.52753 14.0795 2.79206 13.3554C1.50262 12.0858 0.703125 10.32 0.703125 8.36742C0.703125 4.48968 3.82336 1.36874 7.70109 1.36795C11.0984 1.33692 14.1422 3.9711 14.5148 7.03757V8.5439L16.1743 12.4178L14.1636 13.1372V16.0784C14.1636 16.6732 13.6815 17.1553 13.0867 17.1553H10.9331V20.6326Z" stroke="#6E7478" stroke-width="0.996094" stroke-miterlimit="10"/>
</svg>
